%TF.GenerationSoftware,KiCad,Pcbnew,7.0.1*%
%TF.CreationDate,2023-11-18T18:12:55+02:00*%
%TF.ProjectId,Ulkovalo,556c6b6f-7661-46c6-9f2e-6b696361645f,rev?*%
%TF.SameCoordinates,Original*%
%TF.FileFunction,Legend,Bot*%
%TF.FilePolarity,Positive*%
%FSLAX46Y46*%
G04 Gerber Fmt 4.6, Leading zero omitted, Abs format (unit mm)*
G04 Created by KiCad (PCBNEW 7.0.1) date 2023-11-18 18:12:55*
%MOMM*%
%LPD*%
G01*
G04 APERTURE LIST*
%ADD10C,0.000000*%
%ADD11C,0.150000*%
%ADD12C,0.120000*%
G04 APERTURE END LIST*
D10*
G36*
X61356894Y-95054582D02*
G01*
X61363689Y-95526201D01*
X61370272Y-96546387D01*
X61358810Y-97512312D01*
X61330109Y-98413373D01*
X61284975Y-99238966D01*
X61224214Y-99978487D01*
X61148632Y-100621331D01*
X61059035Y-101156895D01*
X61009234Y-101381133D01*
X60956230Y-101574574D01*
X60897677Y-101744063D01*
X60827628Y-101910761D01*
X60746743Y-102073987D01*
X60655680Y-102233058D01*
X60555099Y-102387291D01*
X60445657Y-102536006D01*
X60328014Y-102678519D01*
X60202829Y-102814149D01*
X60070761Y-102942213D01*
X59932469Y-103062030D01*
X59788611Y-103172918D01*
X59639846Y-103274193D01*
X59486833Y-103365174D01*
X59330232Y-103445180D01*
X59170700Y-103513527D01*
X59008897Y-103569534D01*
X58959641Y-103584675D01*
X58910764Y-103598390D01*
X58861778Y-103610741D01*
X58812196Y-103621790D01*
X58761529Y-103631598D01*
X58709288Y-103640228D01*
X58654985Y-103647742D01*
X58598132Y-103654202D01*
X58538240Y-103659669D01*
X58474821Y-103664206D01*
X58407387Y-103667875D01*
X58335450Y-103670738D01*
X58176111Y-103674294D01*
X57992897Y-103675369D01*
X57320855Y-103675369D01*
X57230897Y-104559077D01*
X57068096Y-106101349D01*
X57002911Y-106648902D01*
X56944486Y-107074602D01*
X56889781Y-107398851D01*
X56835759Y-107642051D01*
X56779380Y-107824603D01*
X56717606Y-107966910D01*
X56653319Y-108086391D01*
X56583567Y-108200694D01*
X56508467Y-108309726D01*
X56428135Y-108413393D01*
X56342687Y-108511604D01*
X56252239Y-108604265D01*
X56156907Y-108691283D01*
X56056809Y-108772565D01*
X55952060Y-108848018D01*
X55842776Y-108917548D01*
X55729073Y-108981064D01*
X55611069Y-109038471D01*
X55488879Y-109089677D01*
X55362619Y-109134589D01*
X55232406Y-109173114D01*
X55098356Y-109205158D01*
X54988143Y-109224633D01*
X54852397Y-109241394D01*
X54518753Y-109266839D01*
X54126322Y-109281618D01*
X53704001Y-109285856D01*
X53280689Y-109279675D01*
X52885282Y-109263201D01*
X52546677Y-109236557D01*
X52407707Y-109219460D01*
X52293773Y-109199867D01*
X52137621Y-109165858D01*
X51994081Y-109130951D01*
X51862369Y-109094617D01*
X51741703Y-109056330D01*
X51631300Y-109015562D01*
X51530377Y-108971787D01*
X51438152Y-108924477D01*
X51353840Y-108873106D01*
X51276660Y-108817145D01*
X51205829Y-108756069D01*
X51140563Y-108689350D01*
X51080079Y-108616460D01*
X51023596Y-108536874D01*
X50970329Y-108450063D01*
X50919496Y-108355501D01*
X50870315Y-108252660D01*
X50817760Y-108132721D01*
X50769111Y-108008271D01*
X50724184Y-107878147D01*
X50682791Y-107741187D01*
X50644747Y-107596227D01*
X50609865Y-107442104D01*
X50577960Y-107277657D01*
X50548845Y-107101722D01*
X50522335Y-106913136D01*
X50498244Y-106710738D01*
X50476385Y-106493364D01*
X50456572Y-106259851D01*
X50438620Y-106009037D01*
X50422342Y-105739759D01*
X50394064Y-105141160D01*
X50362315Y-104310367D01*
X49700857Y-104310367D01*
X49669106Y-104903036D01*
X49656851Y-105088950D01*
X49638039Y-105271406D01*
X49612807Y-105450049D01*
X49581298Y-105624521D01*
X49543649Y-105794467D01*
X49500000Y-105959529D01*
X49450492Y-106119351D01*
X49395263Y-106273577D01*
X49334452Y-106421849D01*
X49268200Y-106563812D01*
X49196647Y-106699108D01*
X49119930Y-106827382D01*
X49038191Y-106948276D01*
X48951569Y-107061434D01*
X48860202Y-107166500D01*
X48764231Y-107263117D01*
X48676340Y-107342523D01*
X48586960Y-107416162D01*
X48495596Y-107484219D01*
X48401752Y-107546882D01*
X48304931Y-107604336D01*
X48204637Y-107656767D01*
X48100375Y-107704361D01*
X47991648Y-107747304D01*
X47877959Y-107785783D01*
X47758814Y-107819982D01*
X47633716Y-107850089D01*
X47502168Y-107876289D01*
X47363676Y-107898769D01*
X47217741Y-107917713D01*
X47063870Y-107933309D01*
X46901564Y-107945743D01*
X46652726Y-107955396D01*
X46406825Y-107954755D01*
X46164691Y-107944068D01*
X45927154Y-107923584D01*
X45695042Y-107893549D01*
X45469187Y-107854213D01*
X45250416Y-107805823D01*
X45039559Y-107748628D01*
X44837446Y-107682875D01*
X44644906Y-107608812D01*
X44462769Y-107526688D01*
X44291863Y-107436750D01*
X44133019Y-107339247D01*
X43987065Y-107234427D01*
X43854832Y-107122537D01*
X43737148Y-107003826D01*
X43641352Y-106885133D01*
X43548478Y-106743604D01*
X43458595Y-106579596D01*
X43371775Y-106393465D01*
X43288086Y-106185568D01*
X43207599Y-105956262D01*
X43130383Y-105705903D01*
X43056508Y-105434847D01*
X42986043Y-105143452D01*
X42919059Y-104832073D01*
X42855625Y-104501067D01*
X42795811Y-104150791D01*
X42739686Y-103781602D01*
X42687321Y-103393855D01*
X42638786Y-102987908D01*
X42594149Y-102564118D01*
X42582036Y-102410597D01*
X42569675Y-102187252D01*
X42545200Y-101573254D01*
X42522710Y-100806458D01*
X42504189Y-99971201D01*
X42495859Y-99224322D01*
X42495768Y-99144213D01*
X43577406Y-99144213D01*
X43584145Y-99783740D01*
X43599565Y-100447452D01*
X43627077Y-101282378D01*
X43662899Y-102022053D01*
X43708395Y-102679873D01*
X43764929Y-103269233D01*
X43833866Y-103803525D01*
X43916569Y-104296146D01*
X44014403Y-104760490D01*
X44128732Y-105209950D01*
X44180630Y-105397217D01*
X44229894Y-105565081D01*
X44277606Y-105714978D01*
X44324854Y-105848341D01*
X44372722Y-105966603D01*
X44422295Y-106071200D01*
X44474659Y-106163566D01*
X44530898Y-106245133D01*
X44560810Y-106282316D01*
X44592098Y-106317337D01*
X44624898Y-106350375D01*
X44659345Y-106381610D01*
X44733723Y-106439388D01*
X44816317Y-106492105D01*
X44908213Y-106541193D01*
X45010496Y-106588088D01*
X45124252Y-106634224D01*
X45250564Y-106681034D01*
X45370619Y-106721889D01*
X45425623Y-106738926D01*
X45478767Y-106753877D01*
X45531167Y-106766875D01*
X45583939Y-106778052D01*
X45638199Y-106787538D01*
X45695064Y-106795466D01*
X45755650Y-106801968D01*
X45821072Y-106807176D01*
X45892448Y-106811221D01*
X45970893Y-106814235D01*
X46057523Y-106816350D01*
X46153456Y-106817697D01*
X46377690Y-106818617D01*
X46602576Y-106819464D01*
X46782751Y-106817459D01*
X46926587Y-106811734D01*
X46987494Y-106807205D01*
X47042456Y-106801420D01*
X47092518Y-106794270D01*
X47138729Y-106785648D01*
X47182133Y-106775445D01*
X47223777Y-106763551D01*
X47264709Y-106749860D01*
X47305974Y-106734261D01*
X47393689Y-106696909D01*
X47451500Y-106668983D01*
X47509651Y-106636964D01*
X47567865Y-106601101D01*
X47625861Y-106561641D01*
X47683362Y-106518832D01*
X47740087Y-106472923D01*
X47795758Y-106424161D01*
X47850096Y-106372794D01*
X47902822Y-106319072D01*
X47953656Y-106263240D01*
X48002319Y-106205549D01*
X48048534Y-106146245D01*
X48092019Y-106085577D01*
X48132497Y-106023793D01*
X48169689Y-105961141D01*
X48203315Y-105897869D01*
X48223803Y-105853117D01*
X48245431Y-105798815D01*
X48267974Y-105735832D01*
X48291206Y-105665035D01*
X48338841Y-105503474D01*
X48386538Y-105321077D01*
X48432499Y-105124789D01*
X48474926Y-104921556D01*
X48512019Y-104718323D01*
X48541981Y-104522035D01*
X48573732Y-104283908D01*
X48113356Y-104135744D01*
X47978361Y-104092214D01*
X47847233Y-104046963D01*
X47719997Y-104000007D01*
X47596675Y-103951362D01*
X47477291Y-103901042D01*
X47361867Y-103849063D01*
X47250428Y-103795441D01*
X47142997Y-103740191D01*
X47039596Y-103683328D01*
X46940250Y-103624869D01*
X46844980Y-103564829D01*
X46753811Y-103503223D01*
X46666766Y-103440066D01*
X46583869Y-103375375D01*
X46505141Y-103309164D01*
X46430607Y-103241450D01*
X46361133Y-103176721D01*
X46296496Y-103114534D01*
X46238060Y-103056439D01*
X46187190Y-103003988D01*
X46145249Y-102958730D01*
X46113602Y-102922215D01*
X46102065Y-102907721D01*
X46093614Y-102895994D01*
X46088418Y-102887229D01*
X46086648Y-102881618D01*
X46087324Y-102879803D01*
X46089331Y-102878324D01*
X46092634Y-102877177D01*
X46097200Y-102876356D01*
X46109984Y-102875675D01*
X46127410Y-102876242D01*
X46149209Y-102878019D01*
X46175108Y-102880966D01*
X46204836Y-102885044D01*
X46238122Y-102890216D01*
X46274694Y-102896442D01*
X46314282Y-102903683D01*
X46401419Y-102921057D01*
X46497362Y-102942027D01*
X46599939Y-102966284D01*
X47076985Y-103077678D01*
X47483400Y-103163895D01*
X47669054Y-103198531D01*
X47847771Y-103228036D01*
X48023123Y-103252796D01*
X48198685Y-103273201D01*
X48378029Y-103289637D01*
X48564729Y-103302491D01*
X48974492Y-103319007D01*
X49456561Y-103325849D01*
X50039523Y-103326118D01*
X51637606Y-103320826D01*
X51690522Y-103484868D01*
X51695598Y-103509099D01*
X51700868Y-103547500D01*
X51711771Y-103663461D01*
X51722799Y-103826056D01*
X51733517Y-104028586D01*
X51743491Y-104264355D01*
X51752286Y-104526664D01*
X51759469Y-104808818D01*
X51764606Y-105104118D01*
X51782931Y-105807930D01*
X51811983Y-106383874D01*
X51831404Y-106627810D01*
X51854554Y-106844476D01*
X51881781Y-107035439D01*
X51913434Y-107202263D01*
X51949862Y-107346515D01*
X51991414Y-107469761D01*
X52038438Y-107573566D01*
X52091284Y-107659496D01*
X52150300Y-107729117D01*
X52215834Y-107783994D01*
X52288237Y-107825695D01*
X52367856Y-107855783D01*
X52439720Y-107872946D01*
X52541427Y-107888660D01*
X52817813Y-107915397D01*
X53163900Y-107935313D01*
X53546575Y-107947726D01*
X53932722Y-107951953D01*
X54289227Y-107947313D01*
X54582977Y-107933123D01*
X54695970Y-107922233D01*
X54780856Y-107908701D01*
X54846902Y-107893566D01*
X54910119Y-107875928D01*
X54970530Y-107855763D01*
X55028158Y-107833047D01*
X55083027Y-107807758D01*
X55135160Y-107779872D01*
X55184579Y-107749366D01*
X55231309Y-107716217D01*
X55275372Y-107680401D01*
X55316792Y-107641896D01*
X55355592Y-107600678D01*
X55391795Y-107556723D01*
X55425425Y-107510009D01*
X55456504Y-107460512D01*
X55485057Y-107408209D01*
X55511106Y-107353076D01*
X55522266Y-107322949D01*
X55533916Y-107284201D01*
X55546045Y-107236897D01*
X55558648Y-107181096D01*
X55585241Y-107044257D01*
X55613632Y-106874179D01*
X55643759Y-106671360D01*
X55675561Y-106436295D01*
X55708975Y-106169479D01*
X55743939Y-105871410D01*
X55982064Y-103675369D01*
X56114647Y-102405367D01*
X57453147Y-102405367D01*
X58003480Y-102405367D01*
X58168742Y-102404448D01*
X58303617Y-102400985D01*
X58361637Y-102397971D01*
X58414432Y-102393926D01*
X58462794Y-102388719D01*
X58507512Y-102382216D01*
X58549378Y-102374288D01*
X58589181Y-102364801D01*
X58627714Y-102353625D01*
X58665766Y-102340627D01*
X58704128Y-102325676D01*
X58743590Y-102308640D01*
X58828981Y-102267784D01*
X58895465Y-102232378D01*
X58961748Y-102191903D01*
X59027503Y-102146745D01*
X59092406Y-102097293D01*
X59156131Y-102043935D01*
X59218352Y-101987057D01*
X59278744Y-101927048D01*
X59336981Y-101864295D01*
X59392737Y-101799185D01*
X59445687Y-101732106D01*
X59495506Y-101663446D01*
X59541867Y-101593592D01*
X59584446Y-101522933D01*
X59622917Y-101451854D01*
X59656953Y-101380745D01*
X59686231Y-101309992D01*
X59735916Y-101163718D01*
X59781842Y-101000026D01*
X59824094Y-100817871D01*
X59862757Y-100616205D01*
X59897917Y-100393982D01*
X59929657Y-100150156D01*
X59958065Y-99883680D01*
X59983225Y-99593508D01*
X60005223Y-99278594D01*
X60024143Y-98937890D01*
X60053092Y-98174929D01*
X60070755Y-97296254D01*
X60077814Y-96293493D01*
X60077896Y-95054582D01*
X60074000Y-94621037D01*
X60066569Y-94283983D01*
X60054921Y-94022831D01*
X60038374Y-93816994D01*
X60016247Y-93645883D01*
X59987856Y-93488910D01*
X59951358Y-93311066D01*
X59914899Y-93147887D01*
X59877897Y-92998289D01*
X59839772Y-92861186D01*
X59799941Y-92735493D01*
X59757823Y-92620125D01*
X59712837Y-92513998D01*
X59664402Y-92416024D01*
X59611937Y-92325120D01*
X59554859Y-92240201D01*
X59492587Y-92160180D01*
X59424541Y-92083973D01*
X59350139Y-92010494D01*
X59268799Y-91938659D01*
X59179940Y-91867382D01*
X59082980Y-91795577D01*
X59014266Y-91748508D01*
X58945025Y-91704523D01*
X58875226Y-91663609D01*
X58804837Y-91625748D01*
X58733829Y-91590926D01*
X58662169Y-91559126D01*
X58589827Y-91530335D01*
X58516772Y-91504535D01*
X58442973Y-91481712D01*
X58368399Y-91461850D01*
X58293018Y-91444934D01*
X58216801Y-91430948D01*
X58139715Y-91419876D01*
X58061730Y-91411704D01*
X57982815Y-91406415D01*
X57902939Y-91403994D01*
X57622481Y-91398702D01*
X57648939Y-91620951D01*
X57695251Y-92067756D01*
X57731704Y-92476796D01*
X57759351Y-92873805D01*
X57779246Y-93284519D01*
X57792444Y-93734672D01*
X57800000Y-94250000D01*
X57802966Y-94856237D01*
X57802779Y-95094104D01*
X57802397Y-95579118D01*
X57793881Y-96553942D01*
X57777923Y-97507930D01*
X57757005Y-98330949D01*
X57733606Y-98912868D01*
X57675397Y-99838579D01*
X57605283Y-100805962D01*
X57537153Y-101636423D01*
X57484897Y-102151368D01*
X57453147Y-102405367D01*
X56114647Y-102405367D01*
X56167438Y-101899683D01*
X56240467Y-101078316D01*
X56302210Y-100276794D01*
X56354031Y-99476761D01*
X56397294Y-98659860D01*
X56463605Y-96902035D01*
X56484121Y-95960553D01*
X56489816Y-95094104D01*
X56480256Y-94292892D01*
X56455007Y-93547118D01*
X56413635Y-92846986D01*
X56355706Y-92182695D01*
X56280785Y-91544450D01*
X56188439Y-90922452D01*
X56075288Y-90322334D01*
X55937085Y-89721161D01*
X55778046Y-89131771D01*
X55602387Y-88566999D01*
X55414326Y-88039682D01*
X55316963Y-87794081D01*
X55218080Y-87562657D01*
X55118205Y-87347015D01*
X55017865Y-87148759D01*
X54917587Y-86969495D01*
X54817898Y-86810827D01*
X54742870Y-86704303D01*
X54662739Y-86599098D01*
X54487706Y-86392950D01*
X54293883Y-86193004D01*
X54082356Y-85999879D01*
X53854209Y-85814195D01*
X53610529Y-85636573D01*
X53352400Y-85467633D01*
X53080908Y-85307994D01*
X52797137Y-85158277D01*
X52502173Y-85019102D01*
X52197101Y-84891089D01*
X51883007Y-84774859D01*
X51560975Y-84671030D01*
X51232091Y-84580225D01*
X50897439Y-84503061D01*
X50558106Y-84440161D01*
X50411098Y-84419313D01*
X50251200Y-84402364D01*
X50080403Y-84389245D01*
X49900699Y-84379885D01*
X49522542Y-84372165D01*
X49132664Y-84378645D01*
X48747002Y-84398768D01*
X48381495Y-84431975D01*
X48211279Y-84453311D01*
X48052078Y-84477708D01*
X47905884Y-84505098D01*
X47774689Y-84535410D01*
X47549867Y-84597501D01*
X47335656Y-84664777D01*
X47131879Y-84737340D01*
X46938357Y-84815290D01*
X46754913Y-84898728D01*
X46581366Y-84987755D01*
X46417541Y-85082471D01*
X46263257Y-85182978D01*
X46118337Y-85289376D01*
X45982602Y-85401766D01*
X45855875Y-85520248D01*
X45737977Y-85644924D01*
X45628729Y-85775894D01*
X45527954Y-85913259D01*
X45435473Y-86057120D01*
X45351107Y-86207577D01*
X45267722Y-86375112D01*
X45183096Y-86553685D01*
X45101447Y-86733499D01*
X45026992Y-86904754D01*
X44963946Y-87057654D01*
X44916528Y-87182401D01*
X44888953Y-87269197D01*
X44883925Y-87295301D01*
X44885439Y-87308243D01*
X44889681Y-87308867D01*
X44898286Y-87308770D01*
X44927690Y-87306507D01*
X44971853Y-87301639D01*
X45028976Y-87294353D01*
X45097262Y-87284834D01*
X45174911Y-87273269D01*
X45260125Y-87259844D01*
X45351107Y-87244744D01*
X45695334Y-87190081D01*
X46019345Y-87144781D01*
X46331698Y-87108287D01*
X46640950Y-87080041D01*
X46955659Y-87059484D01*
X47284383Y-87046059D01*
X47635680Y-87039206D01*
X48018106Y-87038369D01*
X48449129Y-87042400D01*
X48826078Y-87055732D01*
X48998305Y-87066468D01*
X49161850Y-87080227D01*
X49318326Y-87097242D01*
X49469346Y-87117744D01*
X49616520Y-87141967D01*
X49761462Y-87170144D01*
X49905784Y-87202506D01*
X50051098Y-87239287D01*
X50199017Y-87280719D01*
X50351152Y-87327034D01*
X50674522Y-87435244D01*
X50945972Y-87536220D01*
X51204795Y-87642777D01*
X51451138Y-87755038D01*
X51685148Y-87873129D01*
X51906973Y-87997173D01*
X52116760Y-88127295D01*
X52314656Y-88263617D01*
X52500809Y-88406265D01*
X52675365Y-88555361D01*
X52838473Y-88711031D01*
X52990279Y-88873399D01*
X53130931Y-89042587D01*
X53260575Y-89218721D01*
X53379360Y-89401925D01*
X53487432Y-89592322D01*
X53584939Y-89790036D01*
X53622970Y-89875895D01*
X53657762Y-89959234D01*
X53689421Y-90040636D01*
X53718058Y-90120682D01*
X53743780Y-90199952D01*
X53766696Y-90279028D01*
X53786914Y-90358493D01*
X53804543Y-90438926D01*
X53819692Y-90520909D01*
X53832469Y-90605024D01*
X53842983Y-90691852D01*
X53851342Y-90781974D01*
X53857654Y-90875973D01*
X53862028Y-90974428D01*
X53864574Y-91077922D01*
X53865398Y-91187036D01*
X53862537Y-91378072D01*
X53853678Y-91558930D01*
X53838399Y-91730595D01*
X53816284Y-91894051D01*
X53786914Y-92050283D01*
X53749870Y-92200276D01*
X53704733Y-92345012D01*
X53651085Y-92485478D01*
X53588508Y-92622657D01*
X53516582Y-92757534D01*
X53434889Y-92891093D01*
X53343011Y-93024319D01*
X53240529Y-93158195D01*
X53127024Y-93293708D01*
X53002078Y-93431840D01*
X52865272Y-93573577D01*
X52714634Y-93720575D01*
X52558593Y-93863782D01*
X52397452Y-94003004D01*
X52231512Y-94138049D01*
X52061077Y-94268722D01*
X51886448Y-94394829D01*
X51707928Y-94516176D01*
X51525819Y-94632571D01*
X51340424Y-94743819D01*
X51152044Y-94849726D01*
X50960982Y-94950098D01*
X50767540Y-95044742D01*
X50572021Y-95133464D01*
X50374727Y-95216070D01*
X50175960Y-95292366D01*
X49976023Y-95362160D01*
X49652239Y-95465192D01*
X49499680Y-95509535D01*
X49351276Y-95549435D01*
X49205476Y-95585150D01*
X49060730Y-95616935D01*
X48915488Y-95645046D01*
X48768200Y-95669738D01*
X48617315Y-95691268D01*
X48461283Y-95709890D01*
X48298554Y-95725862D01*
X48127578Y-95739439D01*
X47754681Y-95760430D01*
X47330190Y-95774909D01*
X46996784Y-95782981D01*
X46721731Y-95786898D01*
X46491451Y-95785979D01*
X46292362Y-95779540D01*
X46110885Y-95766900D01*
X45933438Y-95747377D01*
X45746442Y-95720288D01*
X45536315Y-95684952D01*
X45388789Y-95658824D01*
X45231217Y-95628727D01*
X45068437Y-95595654D01*
X44905284Y-95560597D01*
X44746596Y-95524548D01*
X44597210Y-95488499D01*
X44461962Y-95453442D01*
X44345690Y-95420369D01*
X44173298Y-95370336D01*
X44101333Y-95351036D01*
X44038112Y-95335619D01*
X43983077Y-95324140D01*
X43935669Y-95316654D01*
X43895330Y-95313213D01*
X43861503Y-95313873D01*
X43846856Y-95315758D01*
X43833629Y-95318688D01*
X43821749Y-95322671D01*
X43811149Y-95327712D01*
X43801758Y-95333820D01*
X43793507Y-95341000D01*
X43786325Y-95349259D01*
X43780143Y-95358604D01*
X43774892Y-95369043D01*
X43770501Y-95380581D01*
X43764020Y-95406984D01*
X43760145Y-95437867D01*
X43758315Y-95473285D01*
X43757344Y-95497976D01*
X43754512Y-95538852D01*
X43749944Y-95593743D01*
X43743763Y-95660478D01*
X43736094Y-95736886D01*
X43727061Y-95820799D01*
X43716788Y-95910044D01*
X43705399Y-96002452D01*
X43665256Y-96426550D01*
X43632307Y-96894925D01*
X43606800Y-97404227D01*
X43588982Y-97951108D01*
X43579101Y-98532220D01*
X43577406Y-99144213D01*
X42495768Y-99144213D01*
X42495094Y-98554275D01*
X42502515Y-97947604D01*
X42518741Y-97390852D01*
X42544394Y-96870564D01*
X42580092Y-96373281D01*
X42626456Y-95885549D01*
X42684106Y-95393910D01*
X42706710Y-95206314D01*
X42723050Y-95054003D01*
X42733313Y-94933566D01*
X42737685Y-94841592D01*
X42737720Y-94805213D01*
X42736352Y-94774671D01*
X42733604Y-94749540D01*
X42729500Y-94729392D01*
X42724062Y-94713803D01*
X42717314Y-94702345D01*
X42709280Y-94694592D01*
X42699982Y-94690118D01*
X42682950Y-94683240D01*
X42663694Y-94673606D01*
X42619036Y-94646576D01*
X42567059Y-94610042D01*
X42508820Y-94565020D01*
X42445372Y-94512526D01*
X42377769Y-94453575D01*
X42307065Y-94389182D01*
X42234315Y-94320363D01*
X42160572Y-94248134D01*
X42086892Y-94173509D01*
X42014328Y-94097505D01*
X41943934Y-94021136D01*
X41876765Y-93945419D01*
X41813874Y-93871368D01*
X41756317Y-93799999D01*
X41705147Y-93732327D01*
X41582491Y-93545064D01*
X41476469Y-93350428D01*
X41387098Y-93148491D01*
X41314392Y-92939321D01*
X41258367Y-92722990D01*
X41219039Y-92499565D01*
X41196422Y-92269118D01*
X41191085Y-92053915D01*
X42543163Y-92053915D01*
X42544276Y-92168127D01*
X42551244Y-92278719D01*
X42564207Y-92385308D01*
X42583305Y-92487509D01*
X42608678Y-92584939D01*
X42640468Y-92677214D01*
X42678815Y-92763951D01*
X42708757Y-92820810D01*
X42741990Y-92877261D01*
X42778458Y-92933268D01*
X42818103Y-92988796D01*
X42860868Y-93043808D01*
X42906696Y-93098268D01*
X42955529Y-93152142D01*
X43007311Y-93205392D01*
X43061985Y-93257984D01*
X43119492Y-93309881D01*
X43242780Y-93411447D01*
X43376719Y-93509804D01*
X43520851Y-93604665D01*
X43674719Y-93695744D01*
X43837865Y-93782753D01*
X44009832Y-93865405D01*
X44190164Y-93943415D01*
X44378401Y-94016494D01*
X44574088Y-94084357D01*
X44776767Y-94146716D01*
X44985980Y-94203285D01*
X45315190Y-94282123D01*
X45615441Y-94344837D01*
X45758059Y-94370536D01*
X45897460Y-94392669D01*
X46034985Y-94411391D01*
X46171975Y-94426858D01*
X46309772Y-94439224D01*
X46449716Y-94448644D01*
X46741409Y-94459269D01*
X47057783Y-94459972D01*
X47409565Y-94451993D01*
X47693308Y-94438859D01*
X47965748Y-94419106D01*
X48227864Y-94392438D01*
X48480632Y-94358562D01*
X48725027Y-94317182D01*
X48962028Y-94268004D01*
X49192611Y-94210734D01*
X49417752Y-94145077D01*
X49638429Y-94070738D01*
X49855617Y-93987422D01*
X50070294Y-93894836D01*
X50283436Y-93792685D01*
X50496020Y-93680674D01*
X50709022Y-93558508D01*
X50923420Y-93425894D01*
X51140189Y-93282536D01*
X51251590Y-93205491D01*
X51359432Y-93127300D01*
X51463507Y-93048178D01*
X51563605Y-92968343D01*
X51659518Y-92888012D01*
X51751036Y-92807402D01*
X51837949Y-92726730D01*
X51920048Y-92646213D01*
X51997125Y-92566068D01*
X52068969Y-92486512D01*
X52135372Y-92407762D01*
X52196124Y-92330035D01*
X52251016Y-92253549D01*
X52299839Y-92178520D01*
X52342383Y-92105165D01*
X52378439Y-92033701D01*
X52400041Y-91987684D01*
X52419294Y-91944363D01*
X52436331Y-91902965D01*
X52451282Y-91862714D01*
X52464280Y-91822836D01*
X52475456Y-91782554D01*
X52484943Y-91741094D01*
X52492871Y-91697680D01*
X52499374Y-91651539D01*
X52504581Y-91601893D01*
X52508626Y-91547969D01*
X52511640Y-91488991D01*
X52513755Y-91424183D01*
X52515103Y-91352772D01*
X52516023Y-91187036D01*
X52515413Y-91005496D01*
X52512137Y-90862838D01*
X52508820Y-90802892D01*
X52504023Y-90748829D01*
X52497475Y-90699371D01*
X52488903Y-90653238D01*
X52478037Y-90609152D01*
X52464605Y-90565832D01*
X52448335Y-90522002D01*
X52428958Y-90476381D01*
X52406201Y-90427690D01*
X52379793Y-90374650D01*
X52314939Y-90250410D01*
X52272370Y-90174664D01*
X52227019Y-90100228D01*
X52178898Y-90027110D01*
X52128015Y-89955317D01*
X52074380Y-89884857D01*
X52018004Y-89815739D01*
X51958895Y-89747969D01*
X51897063Y-89681556D01*
X51832518Y-89616507D01*
X51765270Y-89552830D01*
X51622702Y-89429623D01*
X51469438Y-89311997D01*
X51305554Y-89200014D01*
X51131128Y-89093736D01*
X50946237Y-88993226D01*
X50750960Y-88898544D01*
X50545373Y-88809754D01*
X50329554Y-88726917D01*
X50103581Y-88650094D01*
X49867531Y-88579350D01*
X49621482Y-88514744D01*
X49476596Y-88481878D01*
X49322130Y-88452732D01*
X49158673Y-88427307D01*
X48986812Y-88405603D01*
X48807138Y-88387620D01*
X48620240Y-88373357D01*
X48426707Y-88362815D01*
X48227127Y-88355994D01*
X47812186Y-88353513D01*
X47380130Y-88365916D01*
X46935671Y-88393201D01*
X46483523Y-88435369D01*
X46025722Y-88493618D01*
X45618088Y-88558069D01*
X45431863Y-88593008D01*
X45256715Y-88629961D01*
X45092155Y-88669086D01*
X44937695Y-88710535D01*
X44792847Y-88754466D01*
X44657123Y-88801031D01*
X44530034Y-88850387D01*
X44411091Y-88902689D01*
X44299807Y-88958091D01*
X44195694Y-89016749D01*
X44098262Y-89078818D01*
X44007023Y-89144452D01*
X43907440Y-89224460D01*
X43810199Y-89310442D01*
X43715440Y-89402012D01*
X43623305Y-89498787D01*
X43447464Y-89706417D01*
X43283801Y-89930264D01*
X43133440Y-90167257D01*
X42997503Y-90414328D01*
X42877117Y-90668405D01*
X42773403Y-90926420D01*
X42687487Y-91185304D01*
X42620493Y-91441986D01*
X42573543Y-91693397D01*
X42547763Y-91936467D01*
X42543163Y-92053915D01*
X41191085Y-92053915D01*
X41190534Y-92031718D01*
X41201389Y-91787434D01*
X41229002Y-91536337D01*
X41273390Y-91278496D01*
X41334567Y-91013982D01*
X41412549Y-90742862D01*
X41507352Y-90465209D01*
X41618992Y-90181091D01*
X41747483Y-89890577D01*
X41792732Y-89795117D01*
X41837617Y-89704594D01*
X41882765Y-89618117D01*
X41928805Y-89534795D01*
X41976364Y-89453737D01*
X42026070Y-89374051D01*
X42078551Y-89294845D01*
X42134435Y-89215228D01*
X42194350Y-89134309D01*
X42258923Y-89051197D01*
X42328783Y-88964999D01*
X42404558Y-88874825D01*
X42576361Y-88678982D01*
X42779357Y-88456535D01*
X42927120Y-88295150D01*
X42988123Y-88226723D01*
X43041707Y-88164584D01*
X43088750Y-88107312D01*
X43130126Y-88053490D01*
X43166711Y-88001698D01*
X43199382Y-87950519D01*
X43229015Y-87898534D01*
X43256485Y-87844324D01*
X43282668Y-87786471D01*
X43308440Y-87723556D01*
X43334678Y-87654161D01*
X43362256Y-87576868D01*
X43424940Y-87392910D01*
X43530938Y-87085074D01*
X43644875Y-86776679D01*
X43764268Y-86473617D01*
X43886638Y-86181780D01*
X44009504Y-85907057D01*
X44130385Y-85655341D01*
X44246802Y-85432523D01*
X44356272Y-85244493D01*
X44421821Y-85143654D01*
X44491416Y-85044567D01*
X44564977Y-84947279D01*
X44642426Y-84851835D01*
X44808676Y-84666668D01*
X44989537Y-84489439D01*
X45184381Y-84320519D01*
X45392582Y-84160280D01*
X45613510Y-84009096D01*
X45846539Y-83867337D01*
X46091039Y-83735376D01*
X46346384Y-83613585D01*
X46611945Y-83502336D01*
X46887095Y-83402002D01*
X47171206Y-83312953D01*
X47463649Y-83235562D01*
X47763798Y-83170202D01*
X48071024Y-83117244D01*
X48348671Y-83086000D01*
X48677911Y-83063748D01*
X49041383Y-83050550D01*
X49421721Y-83046468D01*
X49801563Y-83051563D01*
X50163546Y-83065898D01*
X50490307Y-83089535D01*
X50635052Y-83104861D01*
X50764481Y-83122536D01*
X51134613Y-83188752D01*
X51503785Y-83271757D01*
X51870413Y-83370730D01*
X52232918Y-83484850D01*
X52589718Y-83613294D01*
X52939232Y-83755241D01*
X53279878Y-83909870D01*
X53610075Y-84076359D01*
X53928241Y-84253885D01*
X54232796Y-84441628D01*
X54522159Y-84638766D01*
X54794747Y-84844477D01*
X55048979Y-85057940D01*
X55283275Y-85278332D01*
X55496053Y-85504832D01*
X55685731Y-85736619D01*
X55801566Y-85894122D01*
X55914906Y-86061013D01*
X56025733Y-86237251D01*
X56134034Y-86422799D01*
X56239793Y-86617618D01*
X56342993Y-86821669D01*
X56443620Y-87034913D01*
X56541658Y-87257311D01*
X56637091Y-87488826D01*
X56729905Y-87729417D01*
X56820083Y-87979046D01*
X56907610Y-88237675D01*
X56992470Y-88505265D01*
X57074648Y-88781777D01*
X57154129Y-89067171D01*
X57230897Y-89361410D01*
X57400231Y-90049327D01*
X58029939Y-90118118D01*
X58206681Y-90139567D01*
X58374300Y-90164451D01*
X58533594Y-90193102D01*
X58685361Y-90225853D01*
X58830400Y-90263038D01*
X58969509Y-90304990D01*
X59103487Y-90352043D01*
X59233132Y-90404530D01*
X59359241Y-90462783D01*
X59482615Y-90527137D01*
X59604051Y-90597925D01*
X59724347Y-90675480D01*
X59844302Y-90760135D01*
X59964715Y-90852224D01*
X60086383Y-90952080D01*
X60210105Y-91060036D01*
X60305982Y-91149603D01*
X60395448Y-91240294D01*
X60478915Y-91332984D01*
X60556792Y-91428551D01*
X60629492Y-91527869D01*
X60697424Y-91631815D01*
X60761001Y-91741264D01*
X60820631Y-91857093D01*
X60876727Y-91980177D01*
X60929700Y-92111392D01*
X60979959Y-92251615D01*
X61027916Y-92401721D01*
X61073982Y-92562586D01*
X61118567Y-92735085D01*
X61162082Y-92920096D01*
X61204939Y-93118494D01*
X61245835Y-93323525D01*
X61262970Y-93418685D01*
X61278113Y-93512558D01*
X61291426Y-93607857D01*
X61303072Y-93707295D01*
X61313215Y-93813586D01*
X61322017Y-93929442D01*
X61329640Y-94057576D01*
X61336249Y-94200702D01*
X61347070Y-94542779D01*
X61355782Y-94977377D01*
X61356894Y-95054582D01*
G37*
D11*
%TO.C,R4*%
X69416666Y-89362619D02*
X69749999Y-88886428D01*
X69988094Y-89362619D02*
X69988094Y-88362619D01*
X69988094Y-88362619D02*
X69607142Y-88362619D01*
X69607142Y-88362619D02*
X69511904Y-88410238D01*
X69511904Y-88410238D02*
X69464285Y-88457857D01*
X69464285Y-88457857D02*
X69416666Y-88553095D01*
X69416666Y-88553095D02*
X69416666Y-88695952D01*
X69416666Y-88695952D02*
X69464285Y-88791190D01*
X69464285Y-88791190D02*
X69511904Y-88838809D01*
X69511904Y-88838809D02*
X69607142Y-88886428D01*
X69607142Y-88886428D02*
X69988094Y-88886428D01*
X68559523Y-88695952D02*
X68559523Y-89362619D01*
X68797618Y-88315000D02*
X69035713Y-89029285D01*
X69035713Y-89029285D02*
X68416666Y-89029285D01*
%TO.C,R8*%
X68416666Y-64712619D02*
X68749999Y-64236428D01*
X68988094Y-64712619D02*
X68988094Y-63712619D01*
X68988094Y-63712619D02*
X68607142Y-63712619D01*
X68607142Y-63712619D02*
X68511904Y-63760238D01*
X68511904Y-63760238D02*
X68464285Y-63807857D01*
X68464285Y-63807857D02*
X68416666Y-63903095D01*
X68416666Y-63903095D02*
X68416666Y-64045952D01*
X68416666Y-64045952D02*
X68464285Y-64141190D01*
X68464285Y-64141190D02*
X68511904Y-64188809D01*
X68511904Y-64188809D02*
X68607142Y-64236428D01*
X68607142Y-64236428D02*
X68988094Y-64236428D01*
X67845237Y-64141190D02*
X67940475Y-64093571D01*
X67940475Y-64093571D02*
X67988094Y-64045952D01*
X67988094Y-64045952D02*
X68035713Y-63950714D01*
X68035713Y-63950714D02*
X68035713Y-63903095D01*
X68035713Y-63903095D02*
X67988094Y-63807857D01*
X67988094Y-63807857D02*
X67940475Y-63760238D01*
X67940475Y-63760238D02*
X67845237Y-63712619D01*
X67845237Y-63712619D02*
X67654761Y-63712619D01*
X67654761Y-63712619D02*
X67559523Y-63760238D01*
X67559523Y-63760238D02*
X67511904Y-63807857D01*
X67511904Y-63807857D02*
X67464285Y-63903095D01*
X67464285Y-63903095D02*
X67464285Y-63950714D01*
X67464285Y-63950714D02*
X67511904Y-64045952D01*
X67511904Y-64045952D02*
X67559523Y-64093571D01*
X67559523Y-64093571D02*
X67654761Y-64141190D01*
X67654761Y-64141190D02*
X67845237Y-64141190D01*
X67845237Y-64141190D02*
X67940475Y-64188809D01*
X67940475Y-64188809D02*
X67988094Y-64236428D01*
X67988094Y-64236428D02*
X68035713Y-64331666D01*
X68035713Y-64331666D02*
X68035713Y-64522142D01*
X68035713Y-64522142D02*
X67988094Y-64617380D01*
X67988094Y-64617380D02*
X67940475Y-64665000D01*
X67940475Y-64665000D02*
X67845237Y-64712619D01*
X67845237Y-64712619D02*
X67654761Y-64712619D01*
X67654761Y-64712619D02*
X67559523Y-64665000D01*
X67559523Y-64665000D02*
X67511904Y-64617380D01*
X67511904Y-64617380D02*
X67464285Y-64522142D01*
X67464285Y-64522142D02*
X67464285Y-64331666D01*
X67464285Y-64331666D02*
X67511904Y-64236428D01*
X67511904Y-64236428D02*
X67559523Y-64188809D01*
X67559523Y-64188809D02*
X67654761Y-64141190D01*
%TO.C,R11*%
X69692857Y-76612619D02*
X70026190Y-76136428D01*
X70264285Y-76612619D02*
X70264285Y-75612619D01*
X70264285Y-75612619D02*
X69883333Y-75612619D01*
X69883333Y-75612619D02*
X69788095Y-75660238D01*
X69788095Y-75660238D02*
X69740476Y-75707857D01*
X69740476Y-75707857D02*
X69692857Y-75803095D01*
X69692857Y-75803095D02*
X69692857Y-75945952D01*
X69692857Y-75945952D02*
X69740476Y-76041190D01*
X69740476Y-76041190D02*
X69788095Y-76088809D01*
X69788095Y-76088809D02*
X69883333Y-76136428D01*
X69883333Y-76136428D02*
X70264285Y-76136428D01*
X68740476Y-76612619D02*
X69311904Y-76612619D01*
X69026190Y-76612619D02*
X69026190Y-75612619D01*
X69026190Y-75612619D02*
X69121428Y-75755476D01*
X69121428Y-75755476D02*
X69216666Y-75850714D01*
X69216666Y-75850714D02*
X69311904Y-75898333D01*
X67788095Y-76612619D02*
X68359523Y-76612619D01*
X68073809Y-76612619D02*
X68073809Y-75612619D01*
X68073809Y-75612619D02*
X68169047Y-75755476D01*
X68169047Y-75755476D02*
X68264285Y-75850714D01*
X68264285Y-75850714D02*
X68359523Y-75898333D01*
%TO.C,R7*%
X68416666Y-67212619D02*
X68749999Y-66736428D01*
X68988094Y-67212619D02*
X68988094Y-66212619D01*
X68988094Y-66212619D02*
X68607142Y-66212619D01*
X68607142Y-66212619D02*
X68511904Y-66260238D01*
X68511904Y-66260238D02*
X68464285Y-66307857D01*
X68464285Y-66307857D02*
X68416666Y-66403095D01*
X68416666Y-66403095D02*
X68416666Y-66545952D01*
X68416666Y-66545952D02*
X68464285Y-66641190D01*
X68464285Y-66641190D02*
X68511904Y-66688809D01*
X68511904Y-66688809D02*
X68607142Y-66736428D01*
X68607142Y-66736428D02*
X68988094Y-66736428D01*
X68083332Y-66212619D02*
X67416666Y-66212619D01*
X67416666Y-66212619D02*
X67845237Y-67212619D01*
%TO.C,R3*%
X63966666Y-107712619D02*
X64299999Y-107236428D01*
X64538094Y-107712619D02*
X64538094Y-106712619D01*
X64538094Y-106712619D02*
X64157142Y-106712619D01*
X64157142Y-106712619D02*
X64061904Y-106760238D01*
X64061904Y-106760238D02*
X64014285Y-106807857D01*
X64014285Y-106807857D02*
X63966666Y-106903095D01*
X63966666Y-106903095D02*
X63966666Y-107045952D01*
X63966666Y-107045952D02*
X64014285Y-107141190D01*
X64014285Y-107141190D02*
X64061904Y-107188809D01*
X64061904Y-107188809D02*
X64157142Y-107236428D01*
X64157142Y-107236428D02*
X64538094Y-107236428D01*
X63633332Y-106712619D02*
X63014285Y-106712619D01*
X63014285Y-106712619D02*
X63347618Y-107093571D01*
X63347618Y-107093571D02*
X63204761Y-107093571D01*
X63204761Y-107093571D02*
X63109523Y-107141190D01*
X63109523Y-107141190D02*
X63061904Y-107188809D01*
X63061904Y-107188809D02*
X63014285Y-107284047D01*
X63014285Y-107284047D02*
X63014285Y-107522142D01*
X63014285Y-107522142D02*
X63061904Y-107617380D01*
X63061904Y-107617380D02*
X63109523Y-107665000D01*
X63109523Y-107665000D02*
X63204761Y-107712619D01*
X63204761Y-107712619D02*
X63490475Y-107712619D01*
X63490475Y-107712619D02*
X63585713Y-107665000D01*
X63585713Y-107665000D02*
X63633332Y-107617380D01*
D12*
%TO.C,R4*%
X65977064Y-89635000D02*
X65522936Y-89635000D01*
X65977064Y-88165000D02*
X65522936Y-88165000D01*
%TO.C,R8*%
X71022936Y-63515000D02*
X71477064Y-63515000D01*
X71022936Y-64985000D02*
X71477064Y-64985000D01*
%TO.C,R11*%
X65977064Y-76885000D02*
X65522936Y-76885000D01*
X65977064Y-75415000D02*
X65522936Y-75415000D01*
%TO.C,R7*%
X71022936Y-66015000D02*
X71477064Y-66015000D01*
X71022936Y-67485000D02*
X71477064Y-67485000D01*
%TO.C,R3*%
X63572936Y-104865000D02*
X64027064Y-104865000D01*
X63572936Y-106335000D02*
X64027064Y-106335000D01*
%TD*%
M02*
