M48
; DRILL file {KiCad 7.0.1} date Sat Nov 18 18:12:57 2023
; FORMAT={-:-/ absolute / metric / decimal}
; #@! TF.CreationDate,2023-11-18T18:12:57+02:00
; #@! TF.GenerationSoftware,Kicad,Pcbnew,7.0.1
; #@! TF.FileFunction,Plated,1,2,PTH
FMAT,2
METRIC
; #@! TA.AperFunction,Plated,PTH,ViaDrill
T1C0.400
; #@! TA.AperFunction,Plated,PTH,ComponentDrill
T2C0.440
; #@! TA.AperFunction,Plated,PTH,ComponentDrill
T3C1.100
; #@! TA.AperFunction,Plated,PTH,ComponentDrill
T4C1.350
%
G90
G05
T1
X44.5Y-109.0
X44.535Y-99.7
X44.65Y-79.9
X45.45Y-47.6
X47.55Y-76.2
X48.65Y-55.8
X49.9Y-72.6
X51.5Y-100.0
X53.5Y-66.25
X53.5Y-69.0
X53.5Y-72.5
X53.5Y-88.25
X54.25Y-76.8
X55.0Y-94.0
X55.05Y-79.9
X56.25Y-77.075
X58.235Y-100.5
X58.235Y-101.5
X58.75Y-49.6
X59.0Y-88.25
X59.25Y-66.25
X59.25Y-69.0
X59.25Y-72.5
X62.8Y-104.2
X64.25Y-49.6
X64.635Y-99.0
X64.635Y-103.0
X64.75Y-54.0
X66.435Y-99.0
X66.435Y-103.0
X67.55Y-78.2
X68.0Y-87.25
X69.5Y-61.5
X69.75Y-105.0
X69.9Y-101.635
X70.0Y-70.0
X70.95Y-58.1
X70.95Y-72.6
X73.25Y-94.25
X73.25Y-106.5
T2
X64.0Y-81.9
X64.0Y-83.2
X65.0Y-81.25
X65.0Y-82.55
X65.0Y-83.85
T3
X53.935Y-112.25
X56.475Y-112.25
X59.015Y-112.25
X61.555Y-112.25
T4
X64.78Y-78.975
X64.78Y-86.125
T0
M30
